JK_SCALED_running1_kinematics.mot
version=1
nRows=8
nColumns=34
inDegrees=yes
endheader
time	pelvis_rotation	pelvis_obliquity	pelvis_tilt	pelvis_tx	pelvis_ty	pelvis_tz	hip_flexion_r	hip_adduction_r	hip_rotation_r	knee_angle_r	ankle_angle_r	subtalar_angle_r	mtp_angle_r	hip_flexion_l	hip_adduction_l	hip_rotation_l	knee_angle_l	ankle_angle_l	subtalar_angle_l	mtp_angle_l	lumbar_extension	lumbar_bending	lumbar_rotation	arm_flex_r	arm_add_r	arm_rot_r	elbow_flex_r	pro_sup_r	arm_flex_l	arm_add_l	arm_rot_l	elbow_flex_l	pro_sup_l
      0.37971000	      3.29650000	      5.79196000	      2.91447000	      1.52281000	      1.03979000	     -0.00204000	    -12.78723000	     -6.42332000	     -5.47595000	    -80.11447000	    -22.44400000	     -9.72725000	     13.10419000	     25.19017000	      9.75036000	      1.21930000	    -19.46807000	     13.81077000	     -4.32146000	      4.91038000	    -18.55579000	    -10.14518000	      1.75705000	    -13.66921000	    -16.93462000	      7.67897000	     86.96652000	    116.83474000	    -27.29752000	    -12.62227000	     -9.42769000	     88.34716000	    118.30406000
      0.39490000	      4.01485000	      7.02955000	      3.23276000	      1.58354000	      1.02319000	     -0.00152000	     -9.56318000	     -8.27793000	     -5.38450000	    -88.73199000	    -20.33532000	    -10.89330000	     12.36247000	     24.45050000	     11.28816000	      1.29438000	    -24.33352000	     13.84064000	     -5.06673000	      5.39280000	    -18.80066000	    -11.86386000	     -0.10211000	    -14.19809000	    -16.19081000	      7.38802000	     85.13680000	    116.41017000	    -25.92224000	    -13.12242000	     -8.88299000	     88.26181000	    117.51220000
      0.41008000	      5.21731000	      8.71173000	      3.54938000	      1.64243000	      1.00919000	     -0.00164000	     -5.79494000	    -10.73218000	     -5.24643000	    -96.55643000	    -18.18373000	    -11.83567000	     11.95617000	     24.23102000	     13.33314000	      1.01468000	    -29.71047000	     10.35446000	     -6.12390000	      6.72116000	    -19.34696000	    -13.86905000	     -2.72133000	    -14.58058000	    -15.34172000	      7.07030000	     83.53063000	    115.78388000	    -24.22275000	    -13.86317000	     -8.21092000	     88.31171000	    116.69614000
      0.42527000	      6.41678000	     10.31968000	      3.78548000	      1.70007000	      0.99921000	     -0.00194000	     -1.23816000	    -13.15669000	     -4.54047000	   -103.20049000	    -16.04062000	    -12.59827000	     11.77698000	     23.57481000	     15.31378000	      1.11578000	    -34.58848000	     10.76027000	     -6.05489000	      5.33088000	    -19.97670000	    -15.64659000	     -5.49174000	    -14.87752000	    -14.50383000	      6.74351000	     82.24385000	    115.05401000	    -22.31156000	    -14.69664000	     -7.45362000	     88.49536000	    116.01835000
      0.44046000	      7.33733000	     11.40829000	      3.79279000	      1.75707000	      0.99372000	     -0.00223000	      4.20491000	    -14.89710000	     -3.24869000	   -108.31300000	    -14.00466000	    -13.17517000	     11.71665000	     22.21041000	     16.75858000	      1.81942000	    -38.44306000	     15.13408000	     -5.19395000	      4.39545000	    -20.37976000	    -16.74807000	     -8.00794000	    -15.18598000	    -13.80376000	      6.43145000	     81.44079000	    114.31339000	    -20.39159000	    -15.50492000	     -6.68393000	     88.88656000	    115.60338000
      0.45565000	      7.79535000	     11.69475000	      3.39490000	      1.81430000	      0.99227000	     -0.00236000	     10.41103000	    -15.45486000	     -1.62286000	   -111.65503000	    -12.14481000	    -13.49455000	     11.68194000	     19.86103000	     17.14964000	      2.85268000	    -40.14809000	     18.77630000	     -4.43141000	      3.74225000	    -20.21845000	    -16.91608000	     -9.98725000	    -15.66918000	    -13.35507000	      6.17009000	     81.30219000	    113.60599000	    -18.77041000	    -16.23041000	     -5.98918000	     89.63496000	    115.48543000
      0.47084000	      8.02037000	     11.12596000	      2.58464000	      1.87237000	      0.99433000	     -0.00263000	     16.93036000	    -14.87318000	     -0.36026000	   -113.07555000	    -10.45908000	    -13.63993000	     11.58046000	     16.59799000	     16.44746000	      4.31869000	    -39.72898000	     21.49653000	     -3.77401000	      3.42124000	    -19.43926000	    -16.05228000	    -11.62753000	    -16.44437000	    -13.21711000	      5.97327000	     81.89645000	    112.93457000	    -17.69227000	    -16.86033000	     -5.43584000	     90.84458000	    115.58523000
      0.48603000	      8.12764000	      9.72117000	      1.39297000	      1.93180000	      0.99926000	     -0.00297000	     23.32254000	    -13.24206000	      0.15577000	   -112.55439000	     -8.86420000	    -13.74262000	     11.35964000	     12.53641000	     14.63751000	      6.14640000	    -37.24130000	     23.15331000	     -3.41367000	      3.37945000	    -18.05094000	    -14.19448000	    -13.04656000	    -17.57470000	    -13.43539000	      5.81293000	     83.17742000	    112.29604000	    -17.28748000	    -17.34871000	     -5.04010000	     92.45762000	    115.75531000
